<?xml version="1.0" encoding="utf-8"?>
<!-- Generator: Adobe Illustrator 23.0.1, SVG Export Plug-In . SVG Version: 6.00 Build 0)  -->
<svg version="1.1" id="Calque_1" xmlns="http://www.w3.org/2000/svg" xmlns:xlink="http://www.w3.org/1999/xlink" x="0px" y="0px"
	 viewBox="0 0 432 432" style="enable-background:new 0 0 432 432;" xml:space="preserve">
<style type="text/css">
	.st0{fill:#282828;}
	.st1{fill:#C0864D;}
	.st2{fill:#BF9C63;}
	.st3{fill:#D67388;}
	.st4{fill:#74AAAF;}
	.st5{fill:#F2ACA5;}
	.st6{fill:#A47B9B;}
	.st7{fill:#D5A8B2;}
	.st8{fill:#B6C8A3;}
	.st9{fill:#3C3C3B;}
	.st10{fill:#E1AD73;}
	.st11{fill:#354F2C;}
	.st12{fill:#9E1D28;}
	.st13{fill:#3E6689;}
	.st14{fill:#036838;}
	.st15{fill:#C7D2D8;}
	.st16{fill:#7D95B2;}
	.st17{fill:#E6E5E5;}
	.st18{fill:#80171B;}
	.st19{fill:#6595AA;}
	.st20{fill:#162640;}
	.st21{fill:#634E42;}
	.st22{fill:#EBCCD2;}
	.st23{fill:#362317;}
	.st24{fill:#C74E26;}
	.st25{fill:#827270;}
	.st26{fill:#EC6C78;}
	.st27{fill:#3C628E;}
	.st28{fill:#544841;}
	.st29{fill:#88525A;}
	.st30{fill:#EA94AA;}
	.st31{fill:#EF8491;}
	.st32{fill:#466C8C;}
	.st33{fill:#BF8E72;}
	.st34{fill:#8A2F2F;}
	.st35{fill:#3F4F45;}
	.st36{fill:#C58247;}
	.st37{fill:#A1272D;}
	.st38{fill:#DFEBF2;}
	.st39{fill:#ABB9CE;}
	.st40{fill:#333333;}
	.st41{fill:#9B3947;}
	.st42{fill:#4D4D4D;}
	.st43{fill:#C2B19F;}
	.st44{fill:#B0C268;}
	.st45{fill:#D98880;}
	.st46{fill:#D95548;}
	.st47{fill:#BA2314;}
	.st48{fill:#CC8A56;}
	.st49{fill:#E6E6E6;}
	.st50{fill:#728290;}
	.st51{fill:#CDDDEC;}
	.st52{fill:#DCE0E3;}
</style>
<g>
	<g>
		<g>
			<g>
				<path class="st0" d="M128.182,318.479c-0.072,1.299-1.515,13.854-0.937,31.966c1.155,0,2.31,0,3.463,0
					c1.011,0.072,1.443,1.804,0.434,2.237c-0.721,0.289-1.371,0.144-3.753,0.217c0.29,0,0.29,10.968,0.218,12.195
					c-0.074,1.154-0.578,1.443-2.02,1.515c-3.897,0.289-4.043,0.938-5.991-6.35c-2.957-11.113-2.452-31.173-0.649-42.356
					c0.434-2.887,7.144-2.598,11.618-2.671c2.67,0,5.196-0.216,6.423,0.289c0.721,0.217,0.721,0.434,0.721,0.866
					c0,1.371-1.515,1.876-3.247,1.876C131.214,318.263,128.182,318.479,128.182,318.479z"/>
				<path class="st0" d="M137.634,346.476c-2.238-15.875,3.391-32.542,17.099-31.605c6.063,0.361,12.196,5.484,12.268,22.297
					C165.774,382.339,140.735,368.917,137.634,346.476z M148.095,350.517c8.661,30.523,17.751-0.288,14.216-20.853
					C157.972,304.236,141.229,326.476,148.095,350.517z"/>
				<path class="st0" d="M195.497,366.753c-3.537-0.289-11.474-6.783-17.101-12.411c0.288,2.958,0.721,6.855,1.371,11.473
					c0.144,1.01-1.515,1.154-3.175,1.227c-1.587,0.072-3.103,0.072-3.607-1.588c-4.33-12.555-5.557-40.841,0.865-45.531
					c2.236-1.66,4.98,0,4.906,1.588c-0.144,4.256-1.225,10.679-1.081,11.833c3.825-10.535,9.452-23.306,20.926-16.018
					c10.317,6.566,5.699,27.131-14.504,30.595c-1.876,0.361-3.609,0.505-4.764,0.505c2.094,1.732,4.618,3.897,7.721,6.638
					c9.38,8.154,10.247,7.288,15.731,8.515C203.65,363.795,201.845,367.33,195.497,366.753z M178.105,345.177
					c0.867-0.072,6.856,0.649,10.681-2.814c11.039-9.814,8.297-30.812-0.649-22.152
					C181.137,326.922,178.105,341.426,178.105,345.177z"/>
			</g>
			<g>
				<path class="st5" d="M250.301,340.344c-0.434,25.976-9.524,26.77-14.648,26.698c-10.463-0.073-9.164-14.143-6.71-14.071
					c0.721,0,1.153,0.289,1.153,0.938c-0.072,3.535,1.011,10.39,5.557,10.39c8.443,0.072,6.566-15.875,6.205-32.542
					c-2.886,10.318-4.113,14.142-9.018,13.709c-12.66-1.101-12.963-26.256-6.856-28.862c0.578-0.217,1.155-0.145,1.804,0
					c1.948,0.649,2.164,2.02,2.382,3.391c0.288,1.299-0.506,17.895,3.607,23.162c1.948,2.381,6.638-13.782,8.225-20.925
					c0.146-2.598,0.867-3.175,3.537-3.103c1.299,0,2.598,0.506,3.247,2.309C249.796,324.541,250.301,336.951,250.301,340.344z"/>
				<path class="st5" d="M254.266,346.476c-2.238-15.875,3.391-32.542,17.099-31.605c6.063,0.361,12.196,5.484,12.268,22.297
					C282.406,382.339,257.367,368.917,254.266,346.476z M264.727,350.517c8.661,30.523,17.751-0.288,14.216-20.853
					C274.604,304.236,257.861,326.476,264.727,350.517z"/>
				<path class="st5" d="M311.263,316.387c0.072-0.361,0.216-1.155,1.443-1.155c1.948,0,1.733,1.011,1.733,2.093
					c1.081,49.139-9.67,49.861-13.782,49.861c-6.854,0-14.648-4.835-14.648-26.338c0-4.329,0.36-24.317,5.773-24.317
					c3.877,0,2.524,4.166,2.524,24.389c0,19.411,5.339,24.174,8.083,23.957C312.275,364.083,311.263,316.459,311.263,316.387z"/>
			</g>
		</g>
		<g>
			<path class="st19" d="M135.253,297.114c0.362,3.247,0.29,5.339-2.454,5.483c-2.67,0.145-2.886,0.217-3.391-2.02
				c-5.339-24.316-2.02-48.779-2.092-48.49c0.649-2.092,2.382-1.875,4.618-1.66c3.319,0.289,1.804,3.391,2.238,28.286
				C134.387,292.207,135.109,296.104,135.253,297.114z"/>
			<g>
				<path class="st19" d="M206.914,264.015c-2.734,0.426-13.137,17.988-11.898,31.519c0.09,0.982-0.048,1.815-1.087,2.248
					c-1.069,0.446-2.355,0.231-3.099-0.592c-1.119-1.237-3.979-7.483-4.706-13.668c-0.72-6.126-0.722-18.613-1.556-19.221
					c-1.36,0.968-3.345,4.923-4.299,7.229c-4.397,10.631-4.804,21.196-7.122,26.391c-2.647,5.931-10.817,5.174-14.706-4.138
					c-3.806-9.112-4.989-23.024-1.081-34.141c0.823-2.342,1.858-4.109,4.319-3.642c2.394,0.454,3.625,2.116,3.254,4.538
					c-0.601,3.932-4.245,15.684,1.044,30.168c0.369,1.011,2.096,5.134,2.67,5.599c2.741-2.592,4.706-20.521,10.781-33.208
					c2.001-4.18,4.177-6.601,8.46-4.879c5.897,2.371,5.523,12.378,6.142,20.654c0.402-0.357,0.43-0.745,0.541-1.079
					c1.878-5.652,5.749-14.63,9.362-18.671c1.879-2.101,4.333-2.543,6.832-1.22c7.277,3.852,2.911,14.79,1.377,32.895
					c-0.349,4.121-1.001,21.307,1.775,24.338c1.548-1.784,5.926-22.749,9.184-37.002c0.365-1.595,0.181-14.284,5.011-20.52
					c4.806-6.205,13.772-2.951,16.439,6.754c0.829,3.017,0.295,6.322-2.696,7.687c-2.459,1.122-6.599,1.251-9.302,1.226
					c-0.768-0.007-0.778,0.016-0.845,0.71c-0.695,7.175,0.354,14.025,3.808,20.427c0.667,1.236,1.381,2.442,2.377,3.445
					c1.372,1.382,2.081,1.41,3.596,0.17c4.922-4.031,8.731-16.753,11.466-24.157c0.694-1.878,0.831-3.811,1.042-5.754
					c0.759-6.994,1.744-13.95,3.557-20.764c0.64-2.403,1.384-4.235,3.796-4.132c2.267,0.097,3.834,1.711,3.848,3.996
					c0.021,3.463-2.545,13.109-3.56,29.884c-0.307,5.08-0.436,24.345,0.198,28.434c0.116,0.751,0.246,0.849,0.976,0.685
					c1.433-0.321,2.872-0.633,4.277-1.055c1.915-0.577,3.891-0.863,5.829-1.325c1.641-0.391,3.097,0.715,2.065,1.896
					c-1.322,1.512-11.214,3.926-13.361,3.961c-5.263,0.086-5.618-3.734-7.179-10.966c-1.978-9.167-1.227-14.498-1.544-15.11
					c-0.717,0.386-2.376,10.063-7.402,15.94c-3.703,4.331-8.556,3.754-11.933,1.678c-7.771-4.776-8.895-13.83-9.574-14.833
					c-3.083,14.099-4.699,23.5-6.107,28.427c-1.943,6.802-9.755,6.124-13.227-7.588c-3.193-12.612,1.059-29.266,2.216-41.251
					C206.936,265.352,206.993,264.701,206.914,264.015z M232.423,269.488c0.942,0.112,4.467,0.142,6.166-0.373
					c1.19-0.361,1.724-1.055,1.794-2.286c0.145-2.555-1.287-5.008-3.026-6.114c-0.49-0.312-0.904-0.264-1.328,0.109
					c-1.71,1.506-2.712,4.604-3.255,6.808C232.625,268.231,232.394,268.819,232.423,269.488z"/>
				<path class="st19" d="M277.574,272.575c0.001-0.894,0.003-0.896-0.926-0.909c-2.386-0.032-6.412,0.134-8.492-0.923
					c-1.768-0.899-1.316-2.392,0.495-2.456c2.518-0.089,5.037-0.138,7.556-0.202c3.195-0.081,0.384,1.856,3.939-20.713
					c0.62-3.934,1.074-8.867,5.073-7.576c4.136,1.336,3.092,4.267,1.087,27.632c-0.043,0.498,0.121,0.674,0.631,0.685
					c5.212,0.111,10.412,0.604,15.631,0.469c2.506-0.065,3.283,2.552-0.077,2.643c-10.872,0.295-8.135,0.223-15.535,0.378
					c-0.963,0.02-0.959,0.02-0.99,1.01c-0.209,6.779-0.335,30.458,5.108,34.46c0.741,0.545,1.275,0.541,1.999-0.016
					c2.606-2.007,9.394-18.013,9.636-19.106c0.409-1.842,3.206-1.372,2.906,0.085c-0.212,1.031-4.628,11.909-4.753,12.216
					c-0.932,2.286-3.059,6.542-4.848,8.298c-2.578,2.53-6.283,2.799-9.194,0.664c-1.142-0.837-2.059-1.89-2.881-3.032
					c-3.961-5.502-5.774-12.91-6.257-19.756C277.484,283.611,277.567,283.051,277.574,272.575z"/>
			</g>
		</g>
	</g>
	<g>
		<g>
			<g>
				<g>
					<circle class="st5" cx="187.843" cy="213.365" r="7.11"/>
					<circle class="st5" cx="238.616" cy="213.365" r="7.11"/>
				</g>
				<path class="st48" d="M216.159,201.369c-1.55,0-3.055,0.308-3.864-1.726c-0.24-0.603-0.496-3.231-0.536-3.88
					c-0.05-0.812,0.253-5.767,0.382-7.012c0.126-1.216,0.535-2.374,1.121-3.464c1.14-2.119,2.95-3.243,5.361-3.579
					c4.01-0.558,7.416,1.015,12.932,2.885c9.732,3.299,13.029,4.249,16.471,6.259c1.09,0.636,2.245,1.383,2.855,2.485
					c0.747,1.35,0.391,2.793-0.932,3.62c-2.982,1.867-8.392,1.711-18.791,2.731c-3.3,0.323-3.039,0.45-14.994,1.757
					C216.163,201.42,216.161,201.395,216.159,201.369z"/>
				<path class="st0" d="M189.48,221.49c-0.78-1.907-2.216-5.875-2-7.562c0.103-0.802,0.714-1.167,1.519-0.976
					c1.18,0.28,1.637,1.308,2.403,2.766c2.248,4.278,6.501,15.458,20.629,17.895c6.071,1.047,11.874,0.505,16.625-3.337
					c4.302-3.479,6.734-8.008,8.018-13.207c0.661-2.679,0.395-6.354,3.075-6.062c0.773,0.084,1.319,0.512,1.563,1.205
					c0.174,0.495,0.311,1.055,0.257,1.565C237.999,247.088,198.972,244.7,189.48,221.49z"/>
				<g>
					<path class="st0" d="M198.506,165.268c5.758,4.782-1.18,14.041-6.804,9.84C185.282,170.314,193.125,160.799,198.506,165.268z"
						/>
					<path class="st0" d="M237.276,165.268c5.758,4.782-1.18,14.041-6.804,9.84C224.049,170.312,231.9,160.803,237.276,165.268z"/>
				</g>
			</g>
			<path class="st0" d="M276.204,147.792c-0.925-5.981-18.151-5.277-24.231-5.696v-0.005c-11.829-57.328,7.639-69.254,0.66-71.991
				c-17.881-6.997-55.022-7.138-73.264,0c-6.979,2.737,12.489,14.663,0.66,71.991v0.005c-6.08,0.419-23.306-0.286-24.231,5.696
				c-0.523,3.464,3.93,7.629,10.86,7.285c30.708-1.536,63.055-1.783,98.688,0C272.274,155.42,276.727,151.256,276.204,147.792z"/>
		</g>
	</g>
	<g>
		<path class="st15" d="M168.398,223.208c-2.211-1.225-5.06-2.42-10.623-4.876c4.277-1.385,9.723-1.509,11.276-2.783
			c0.459-0.376,0.892-1.199,0.794-1.722c-0.098-0.526-0.798-1.076-1.363-1.338c-0.423-0.196,0.161-0.14-10.663-0.14
			c6.497-4.692,7.624-5.391,8.379-6.477c1.294-1.864-0.618-4.178-3.851-2.407c-3.081,1.689-3.076,2.137-6.344,3.672
			c0.85-2.142,3.651-8.98,3.779-11.313c0.053-0.942-0.38-1.813-1.307-1.905c-0.63-0.062-1.518,0.335-1.941,0.826
			c-1.102,1.281-4.23,9.611-6.193,13.261c-0.877-2.013-0.011-10.054-1.381-13.606c-0.737-1.912-3.676-1.81-4.218,0.309
			c-0.478,1.869,0.002,8.95-0.362,13.978c-2.6-2.779-6.253-6.468-8.648-8.586c-1.358-1.202-2.719-1.111-3.511-0.15
			c-1.449,1.759,1.288,3.762,6.301,9.512c0.304,0.349,0.506,0.786,0.973,1.532c-9.28-3.131-9.347-3.588-13.016-3.537
			c-0.969,0.014-1.828,0.484-1.962,1.607c-0.261,2.168,2.098,1.721,11.585,6.044c-5.18,1.326-8.868,1.347-12.743,2.594
			c-2.193,0.705-1.7,3.224,0.434,3.347c3.761,0.215,3.937,0.099,12.558-0.385c-6.845,5.785-8.591,6.719-9.22,8
			c-0.263,0.534-0.345,1.462-0.043,1.884c1.829,2.554,7.564-3.379,16.221-8.247c-1.477,3.508-4.092,10.78-5.138,13.851
			c-0.621,1.822-0.139,2.993,1.058,3.313c1.008,0.269,1.59-0.293,2.341-2.012c1.069-2.444,2.211-4.855,3.322-7.281
			c0.139,0.034,0.277,0.068,0.415,0.103c0.576,3.012,0.735,6.838,3.823,6.112c1.33-0.313,1.762-1.278,1.599-3.095
			c-0.248-2.765-0.41-5.538-0.574-8.31c-0.028-0.467,0.123-0.944,0.27-1.952c1.66,1.964,0.518,0.872,9.18,9.815
			c0.48,0.496,0.982,1.015,1.573,1.347c2.031,1.139,4.343-0.826,2.941-3.053c-0.277-0.439,0.026-0.061-5.322-6.309
			c4.847,0.669,9.613,4.102,10.69,0.91C169.863,224.634,169.372,223.747,168.398,223.208z"/>
		<path class="st15" d="M291.182,197.237c8.627-0.178,13.984,0.276,16.361-0.347c1.864-0.488,1.644-2.701,0.017-3.635
			c-1.214-0.698-12.412-0.73-20.871-1.462c11.255-14.555,14.501-18.017,11.369-19.683c-2.22-1.181-2.364,0.946-13.301,13.252
			c-1.397-7.286-1.715-9.43-2.606-12.166c-0.676-2.079-3.76-1.709-4.115,0.332c-0.384,2.21,0.108,3.513,1.393,11.893
			c0.07,0.457-0.006,0.936-0.018,1.59c-11.143-9.355-16.188-14.106-18.085-10.927c-0.864,1.45,0.114,2.532,1.45,3.701
			c7.718,6.76,5.814,5.01,13.256,11.635c-7.856,0.12-9.123-0.208-11.778,0.294c-2.398,0.454-1.431,2.479-0.294,2.941
			c2.095,0.852,4.242,0.91,11.686,1.64c-0.686,0.823-1.027,1.207-1.342,1.612c-7.028,9.065-7.636,9.542-7.944,11.499
			c-0.295,1.873,1.869,2.528,3.803,0.657c1.634-1.58,3.102-3.263,11.654-12.774c2.385,9.498,1.243,7.545,4.775,18.83
			c0.344,1.101,1.211,1.641,2.338,1.41c3.416-0.698,1.06-4.876-0.423-15.254c9.128,7.071,13.015,11.264,15.036,8.53
			C305.715,207.866,302.155,206.553,291.182,197.237z"/>
	</g>
</g>
</svg>
